# xmcd
#
# Track frame offsets: 
#        150
#        19939
#        27184
#        40506
#        60120
#        83447
#        104524
#        126464
#        143003
#        167330
#        187932
#        209497
#        233311
#        239658
#        253850
#        259535
#        263787
#        279821
#        310723
#
# Disc length: 4506 seconds
#
# Revision: 3
# Processed by: cddbd v1.4PL0 Copyright (c) Steve Scherf et al.
# Submitted via: ExactAudioCopy v0.95a3
#
DISCID=ed119813
DTITLE=SEIKIMA-II - 1999 BLACK LIST "GINBAN"
DYEAR=1999
DGENRE=Rock
TTITLE0=1999 SECRET OBJECT
TTITLE1=SEIKIMA-II MASS NO.2 "SOUSEIKI"
TTITLE2=JIGOKU NO KOUTAISHI
TTITLE3=ROUNINGYOU NO YAKATA '99
TTITLE4=MASQUERADE
TTITLE5=MAHIRU NO TSUKI -MOON AT MID DAY-
TTITLE6=SAKURA CHITTE SAKURA SAITE
TTITLE7=YABUREZARU MONOTACHI
TTITLE8=BRAND NEW SONG
TTITLE9=SAVE YOUR SOUL -UTSUKUSHIKI KURISHE NI SEWO MUKETE-
TTITLE10=HOLY BLOOD -TATAKAI NO KETTOU-
TTITLE11=FIRE AFTER FIRE
TTITLE12=AKUMAKUMIKYOKU NO.666 JYOKYOKU KOKORO NO SAKEBI
TTITLE13=DAI1GAKUSHOU: STORMY NIGHT
TTITLE14=DAI2GAKUSHOU: AKUMA NO ANA
TTITLE15=DAI3GAKUSHOU: KILL THE KING GHIDRAH
TTITLE16=DAI4GAKUSHOU: DEAD SYMPHONY
TTITLE17=ARASHI NO YOKAN
TTITLE18=EL.DORADO
EXTD=
EXTT0=
EXTT1=
EXTT2=
EXTT3=
EXTT4=
EXTT5=
EXTT6=
EXTT7=
EXTT8=
EXTT9=
EXTT10=
EXTT11=
EXTT12=
EXTT13=
EXTT14=
EXTT15=
EXTT16=
EXTT17=
EXTT18=
PLAYORDER=
